<mxfile host="app.diagrams.net" modified="2023-10-04T09:39:26.435Z" agent="Mozilla/5.0 (Windows NT 10.0; Win64; x64) AppleWebKit/537.36 (KHTML, like Gecko) Chrome/117.0.0.0 Safari/537.36 Edg/117.0.2045.47" etag="SHAX0Zfa2oL48GIuSiSX" version="22.0.0" type="github">
  <diagram name="Page-1" id="l9YZu9mIyAMlCMDrtVT4">
    <mxGraphModel dx="2229" dy="1899" grid="1" gridSize="10" guides="1" tooltips="1" connect="1" arrows="1" fold="1" page="1" pageScale="1" pageWidth="850" pageHeight="1100" math="0" shadow="0">
      <root>
        <mxCell id="0" />
        <mxCell id="1" parent="0" />
        <mxCell id="i8amOK9L9qdCyyJ3UUeL-33" value="Public subnet" style="points=[[0,0],[0.25,0],[0.5,0],[0.75,0],[1,0],[1,0.25],[1,0.5],[1,0.75],[1,1],[0.75,1],[0.5,1],[0.25,1],[0,1],[0,0.75],[0,0.5],[0,0.25]];outlineConnect=0;gradientColor=none;html=1;whiteSpace=wrap;fontSize=12;fontStyle=0;container=1;pointerEvents=0;collapsible=0;recursiveResize=0;shape=mxgraph.aws4.group;grIcon=mxgraph.aws4.group_security_group;grStroke=0;strokeColor=#248814;fillColor=#E9F3E6;verticalAlign=top;align=left;spacingLeft=30;fontColor=#248814;dashed=0;" vertex="1" parent="1">
          <mxGeometry x="140" y="200" width="560" height="120" as="geometry" />
        </mxCell>
        <mxCell id="i8amOK9L9qdCyyJ3UUeL-34" value="Elastic&lt;br&gt;Load Balancing" style="text;html=1;align=center;verticalAlign=middle;resizable=0;points=[];autosize=1;strokeColor=none;fillColor=none;" vertex="1" parent="i8amOK9L9qdCyyJ3UUeL-33">
          <mxGeometry x="300" y="40" width="110" height="40" as="geometry" />
        </mxCell>
        <mxCell id="i8amOK9L9qdCyyJ3UUeL-1" value="Private subnet" style="points=[[0,0],[0.25,0],[0.5,0],[0.75,0],[1,0],[1,0.25],[1,0.5],[1,0.75],[1,1],[0.75,1],[0.5,1],[0.25,1],[0,1],[0,0.75],[0,0.5],[0,0.25]];outlineConnect=0;gradientColor=none;html=1;whiteSpace=wrap;fontSize=12;fontStyle=0;container=1;pointerEvents=0;collapsible=0;recursiveResize=0;shape=mxgraph.aws4.group;grIcon=mxgraph.aws4.group_security_group;grStroke=0;strokeColor=#147EBA;fillColor=#E6F2F8;verticalAlign=top;align=left;spacingLeft=30;fontColor=#147EBA;dashed=0;" vertex="1" parent="1">
          <mxGeometry x="140" y="350" width="561" height="330" as="geometry" />
        </mxCell>
        <mxCell id="i8amOK9L9qdCyyJ3UUeL-2" value="Singapore" style="points=[[0,0],[0.25,0],[0.5,0],[0.75,0],[1,0],[1,0.25],[1,0.5],[1,0.75],[1,1],[0.75,1],[0.5,1],[0.25,1],[0,1],[0,0.75],[0,0.5],[0,0.25]];outlineConnect=0;gradientColor=none;html=1;whiteSpace=wrap;fontSize=12;fontStyle=0;container=1;pointerEvents=0;collapsible=0;recursiveResize=0;shape=mxgraph.aws4.group;grIcon=mxgraph.aws4.group_region;strokeColor=#147EBA;fillColor=none;verticalAlign=top;align=left;spacingLeft=30;fontColor=#147EBA;dashed=1;" vertex="1" parent="1">
          <mxGeometry x="-80" y="80" width="840" height="820" as="geometry" />
        </mxCell>
        <mxCell id="i8amOK9L9qdCyyJ3UUeL-5" value="Availability Zone A" style="fillColor=none;strokeColor=#147EBA;dashed=1;verticalAlign=top;fontStyle=0;fontColor=#147EBA;whiteSpace=wrap;html=1;" vertex="1" parent="i8amOK9L9qdCyyJ3UUeL-2">
          <mxGeometry x="200" y="40" width="280" height="740" as="geometry" />
        </mxCell>
        <mxCell id="i8amOK9L9qdCyyJ3UUeL-4" value="Availability Zone B" style="fillColor=none;strokeColor=#147EBA;dashed=1;verticalAlign=top;fontStyle=0;fontColor=#147EBA;whiteSpace=wrap;html=1;" vertex="1" parent="i8amOK9L9qdCyyJ3UUeL-2">
          <mxGeometry x="520" y="40" width="280" height="740" as="geometry" />
        </mxCell>
        <mxCell id="i8amOK9L9qdCyyJ3UUeL-6" value="Private subnet" style="points=[[0,0],[0.25,0],[0.5,0],[0.75,0],[1,0],[1,0.25],[1,0.5],[1,0.75],[1,1],[0.75,1],[0.5,1],[0.25,1],[0,1],[0,0.75],[0,0.5],[0,0.25]];outlineConnect=0;gradientColor=none;html=1;whiteSpace=wrap;fontSize=12;fontStyle=0;container=1;pointerEvents=0;collapsible=0;recursiveResize=0;shape=mxgraph.aws4.group;grIcon=mxgraph.aws4.group_security_group;grStroke=0;strokeColor=#147EBA;fillColor=#E6F2F8;verticalAlign=top;align=left;spacingLeft=30;fontColor=#147EBA;dashed=0;" vertex="1" parent="i8amOK9L9qdCyyJ3UUeL-2">
          <mxGeometry x="220" y="639" width="560" height="120" as="geometry" />
        </mxCell>
        <mxCell id="i8amOK9L9qdCyyJ3UUeL-7" value="VPC" style="points=[[0,0],[0.25,0],[0.5,0],[0.75,0],[1,0],[1,0.25],[1,0.5],[1,0.75],[1,1],[0.75,1],[0.5,1],[0.25,1],[0,1],[0,0.75],[0,0.5],[0,0.25]];outlineConnect=0;gradientColor=none;html=1;whiteSpace=wrap;fontSize=12;fontStyle=0;container=1;pointerEvents=0;collapsible=0;recursiveResize=0;shape=mxgraph.aws4.group;grIcon=mxgraph.aws4.group_vpc;strokeColor=#248814;fillColor=none;verticalAlign=top;align=left;spacingLeft=30;fontColor=#AAB7B8;dashed=0;" vertex="1" parent="i8amOK9L9qdCyyJ3UUeL-2">
          <mxGeometry x="170" y="80" width="650" height="720" as="geometry" />
        </mxCell>
        <mxCell id="i8amOK9L9qdCyyJ3UUeL-14" value="DocumentDB" style="text;html=1;align=center;verticalAlign=middle;resizable=0;points=[];autosize=1;strokeColor=none;fillColor=none;" vertex="1" parent="i8amOK9L9qdCyyJ3UUeL-7">
          <mxGeometry x="290" y="638" width="90" height="30" as="geometry" />
        </mxCell>
        <mxCell id="i8amOK9L9qdCyyJ3UUeL-42" value="NAT Gateway" style="text;html=1;align=center;verticalAlign=middle;resizable=0;points=[];autosize=1;strokeColor=none;fillColor=none;" vertex="1" parent="i8amOK9L9qdCyyJ3UUeL-7">
          <mxGeometry x="507.5" y="120" width="100" height="30" as="geometry" />
        </mxCell>
        <mxCell id="i8amOK9L9qdCyyJ3UUeL-45" value="" style="sketch=0;points=[[0,0,0],[0.25,0,0],[0.5,0,0],[0.75,0,0],[1,0,0],[0,1,0],[0.25,1,0],[0.5,1,0],[0.75,1,0],[1,1,0],[0,0.25,0],[0,0.5,0],[0,0.75,0],[1,0.25,0],[1,0.5,0],[1,0.75,0]];outlineConnect=0;fontColor=#232F3E;fillColor=#8C4FFF;strokeColor=#ffffff;dashed=0;verticalLabelPosition=bottom;verticalAlign=top;align=center;html=1;fontSize=12;fontStyle=0;aspect=fixed;shape=mxgraph.aws4.resourceIcon;resIcon=mxgraph.aws4.elasticsearch_service;" vertex="1" parent="i8amOK9L9qdCyyJ3UUeL-7">
          <mxGeometry x="460" y="574" width="64" height="64" as="geometry" />
        </mxCell>
        <mxCell id="i8amOK9L9qdCyyJ3UUeL-63" style="edgeStyle=orthogonalEdgeStyle;rounded=0;orthogonalLoop=1;jettySize=auto;html=1;exitX=0.5;exitY=1;exitDx=0;exitDy=0;" edge="1" parent="i8amOK9L9qdCyyJ3UUeL-7" source="i8amOK9L9qdCyyJ3UUeL-49" target="i8amOK9L9qdCyyJ3UUeL-45">
          <mxGeometry relative="1" as="geometry">
            <Array as="points">
              <mxPoint x="485" y="550" />
              <mxPoint x="485" y="550" />
            </Array>
          </mxGeometry>
        </mxCell>
        <mxCell id="i8amOK9L9qdCyyJ3UUeL-49" value="" style="fillColor=none;strokeColor=#000000;dashed=1;verticalAlign=top;fontStyle=0;fontColor=#147EBA;whiteSpace=wrap;html=1;" vertex="1" parent="i8amOK9L9qdCyyJ3UUeL-7">
          <mxGeometry x="380" y="210" width="210" height="290" as="geometry" />
        </mxCell>
        <mxCell id="i8amOK9L9qdCyyJ3UUeL-50" value="Elastic Kubernetes Service" style="text;html=1;align=center;verticalAlign=middle;resizable=0;points=[];autosize=1;strokeColor=none;fillColor=none;" vertex="1" parent="i8amOK9L9qdCyyJ3UUeL-7">
          <mxGeometry x="407" y="210" width="170" height="30" as="geometry" />
        </mxCell>
        <mxCell id="i8amOK9L9qdCyyJ3UUeL-52" value="" style="shape=image;verticalLabelPosition=bottom;labelBackgroundColor=default;verticalAlign=top;aspect=fixed;imageAspect=0;image=data:image/png,iVBORw0KGgoAAAANSUhEUgAAALEAAAA1CAMAAAA51vo5AAAAAXNSR0IArs4c6QAAAARnQU1BAACxjwv8YQUAAADAUExURQAAAACAv0AAgACf32AggACZ5mYamQCq520kngCn6wCn7WosngCq6GwumwCs7WsqmgCv7G0rnACs7GsungCr7QCu7m8vnQCs7QCu7m4unACt724vnACu7W0vn24vnW0tnwCt7W4unQCu7gCt7gCu724tnQCu7wCv7m4unwCv728vnwCv7m4ungCv7gCv728vn24vngCv7wCu728ungCv7m4unwCv7m4unwCv724unwCv7m8unwCu728unwCv728vn9BvS08AAAA+dFJOUwAEBAgICgoVFRodHSEhKys2Njc3Ojw8R1hYXV1iYm13gICEho2NnaKir6+ysri/v8XMzc3S1+Hh7u709Pn5NN4/wgAAAAlwSFlzAAAXEQAAFxEByibzPwAAAvFJREFUaEPtlltXE0EQhBcQUbzfI3hBRSFeoqCiYtj9///Kqq7u2dkQNzk++NR1DknNbO/ONz3dWZpUKpVKpVKpVOo/6lnbTsOc79BszWhu/mwlTTZvYF/TbHxo2wObMrs3iLwvPz+6rYimufWro77sX+0HXff72sA/kL84vqObRhXEXH1+t5/Bp6T9GJbsYZjmkVHWkcW3E4U0z40Fer8wWOq7p7prTFjjdBvfWF3ERMdy4PJMUpz0wHJHZLuOlOf2FNI0b7vulSFd3IuBdNkz6195FOMCqT0ca4lYE1tnfZogTH468wKJO2gwU0eGx8Oc+MoPy5u+fFBfGHiAr0+sYvTV8IWxasSEbM4f4s9mBFoOo44M3xMjb0yumHxQXxj49YixCB9+2M5PAoDjkkgTRlPfSo/lIXWke6baC+WxdZYzYVCIlnhuqxTK3yVCrDEVEaqUi+HL2wvCVTDiumFoFCkeRMrvzvpNoIDZcsqeD0yX/Y3Pa6WYxOr3ibECx44ceCZbWSCB5qiR2zoyfHvkwOqpzRel8UzkWua74zWAhYiP020jBgcTSSoTB55UXFIyLdmR4joSgdKexUE8aNMFOmvzow9w9LUvQft+17iMGDAT5vAA61uKo1ZNICSqV7gTB38dKY/nlBnUL/X9JZM33nj+A7haZLxunEwv1rRahY9KJEfIdmPlgduEVUfKM+v2EKjurxWNx6yv0XcixrsVSzBr+MkwjqhZqhRn5I5gTyKgjnTvZ0LV/bWi8VjNfeyImKwTQwEI3hJayw5eQoqVWuYuft6+zeLkq8jwAI+0W+OF6sESD/D+PMZkKSSnnb44CpysIwWcGkxbqyJtnh5b1x7Ly8zEY49B7SMIxcGf7tUisXEasTj60p30yzPSLhuxT1aR9OVB2kXdX9GFkL39XP2bkHNle2PCGbbvaHYB4kddOM53IrFQlOwGN+mTVaQ3Xp/rhcYrlAv/akbQ4EBSqVQqlUqlUqlUKpVK/ZOa5g8Yiv52DdNetQAAAABJRU5ErkJggg==;" vertex="1" parent="i8amOK9L9qdCyyJ3UUeL-7">
          <mxGeometry x="441.90999999999997" y="240" width="100.19" height="30" as="geometry" />
        </mxCell>
        <mxCell id="i8amOK9L9qdCyyJ3UUeL-56" value="" style="shape=image;verticalLabelPosition=bottom;labelBackgroundColor=default;verticalAlign=top;aspect=fixed;imageAspect=0;image=data:image/png,iVBORw0KGgoAAAANSUhEUgAAAYgAAAFVCAYAAAD143jXAAAAAXNSR0IArs4c6QAAAARnQU1BAACxjwv8YQUAAAAJcEhZcwAAFxEAABcRAcom8z8AAFkGSURBVHhe7b0HeBzXebZNl8RKHCdK7HxWnNiy89uxI1tyYQHABpFiRwcBove+BQuAAAnWZQE7CgGigyRISiTFLlYQYAEpyaJsy6ET22EcfRETN8n+E8uOEyu2Y8133tlzBmdnz8zONmB39r2v67mAnbIzu/ue85w+0xAE8c67776bTdRHdF9CvEK+pwdEw0TV9CtEEAQxFySve5RkciOubA/xB/L93SN/Pkm/UgRBEHOA5hAcyPcINa9H6NeKIAgS2ZBMLduVvSFBYgv9ahEEQSIbYhDDNGNDggDUIuhXiyAIEtmQDO0hzduQIEC+z3foV4sgCBLZ0HwNCSL0q0UQBIlsaJ6GBBH61SIIgkQ2NE9Dggj9ahEEQSIbmqchQYR+tQiCIJENzdOQIEK/WgRBkMiG5mlIEKFfLYIgSGRD8zQkiNCvFkEQJLKheRoSROhXiyAIEtnQPA0JIvSrRRAEiWxonoYEEfrVIgiCRDY0T0OCCP1qEQRBIhuapyFBhH61CIIgkQ3N05AgQr9aBEGQyIbmaUgQoV8tgiBIZEPzNCSI0K8WQRAksqF5GhJE6FeLIAgS2dA8DQki9KtFEASJbGiehgQR+tUiCIJENjRPQ4II/WoRBEEiG5qnIUGEfrUIgiCRDc3TkCBCv1oEQZDIhuZpSBChXy2CIEhk8+67775N8zUkSNCvFkEQJLIhBnGB5mtIECDf5wP61SIIgkQ2JE/b4srakGBADGKYfrUIgiCRDcnTHiGZ2kNX9oYEAm2u+yT9ahEEQSIfkrHFEr3pyuYQfyDf3ztE2fQrRRAEMQ8kj3uUZHB9RFib8AEwViLox/kc/SoRBEEQBEEQBEEQBEEQBEEQBEEQBEEQBEEQBEEQBEEQBEEQBEEQBEEQBEEQBEEQBEEQBEEQBEEQBEEQBEEQBEEQBEEQBEEQBEEQBEEQBEEQBEEQBEEQBEEQBEEQBEEQBEEQBEEQBEEQBEEQBEEQBEEQBEEQBEEQBEEQBEEQBEEQBEEQBEEQBEEQBEEQBEEQBEEQBEEily+mdHzyiys7nv5Ceuvn6OsvPZneMfJUevu4m1Lbm2E/2Vf8VHqH5KG09mHcHz37n0xvv09jo+PJtI4tEEOwH0GQCOaJzL2Pkcy+miTye3wGQBL+Sdj/hfSOVH67ojDLoHB/eO0n2+X4eSqtLdv1uv0+MY46iDfYjiBImPJ4kfMRqBnA/yQBL3NP2O1vs5Ig7IcaBZgElggRPSCeIEagsAE1CIgr2A41TT6+XDFGaqR0P4IgYcKTaW2xUPKTTSCt400wChCU9qCkB//TQxEkqEB8ueKs4x1qEsVsezSbBWvSBVOVjZU24bLvx7XN3WDl749sx/3htZ/kqw/pb9cHhWrYDzXmsM9XSRA+Csbg9gFJlR+r+8hkA7EImR/8hdeuRAXx2DESDfGoFNJWduyC17R5V0mXTP5kULg/jPZP/L4TNei09gthWRiCxOe6wY534MZZBzSCTCVQsoIE5GrWJImK/GUlZ7MBn4t8xol+PpJZyNvBMKDUSdIlfBf8ABEksmC1QTmmye8K29wMgkouFE21UUBpjFVzyI1/idzYPQw8JByBWFUKMbJc/V9mADINaM7lMgfo4+uA7fQQJAqQYxwKATQWWJ+u3L872bFAXKtaDkRSY8BARCIFV39Ex5ss8UDBRt4RgbDCGQAlRqL7UIvAfr7oRq41kzif+J/2ydEmq5Dj1tdAqrHYz4BEEiwDddUqoJDjGk4bKcD9EyM4KSd62g6NaRARQQpAqr7h9nHYRncHH+VixJX4EgyCRBrQHOpqjpELOhFhEvSe78vmIJubq6SIIHrI/RasGZL8Zf0XQQWq43J1RRaOMUciH4jpSDEJKJBN3GvHA+zvQ3wBapkkdu5B/h302GHVEjAGNAfETESCSchtyekwfwFqDh0nQ9pMgJgWuXmS1h7AJIIyWAMSDVRrMSiDS1XX5S/WHhpPrD14d6W973qepW+k2NpztcTee6XAMTCWWXf4TpKt9/I8u/PaH9NTkBDBTAI6eemmsIHvM4HBIfJGBAkQyNPlAkdaRx3d5DtwMq3SvsNGfiB+4nS+t6rzcl7D0Zd21w7eOGbvH7vvGLp52XFofL99cHS/vR90Xf7rGLq1v+7Q7dM1By7/naX72pX6w3fayTENlu4r2BkZIvgCULjEulzKg7ZjNAYkyMitQYHk7XKJBfobyJtgh7T/WA7eerymZ6S18ejLl2oHxy6sHr5bXXfozqrVh786c3rlwO/Rw4RU7T/7GevAWHLjkZcKLb0jz9r6rt+x9lx5ztJ9aa7Tefr36WFIkHA15bgmm0Gtgm6eEuR7Set44ErErklvCBJMlFnapBDi80g4NrEI2jzpJsQHanquPWXpvdpVf+jueE3P1Xb7oVefaHrh5Q/R3T4T73S+39J9/dNV3VdttQM3rlt6rpyt7rq4kO5GgoQ82UiO+/b7dNOUAE27NPE+wOZdJFSwvi34y5ozvSIPi3IlkrdxjLVvOJ3j77f2jThIaf8b1r5re60Hxz5GdwUR53vt/dftlgOX71R3Xu4v333ur+gOJEDkjjy2flMg7bMBAE1K1ByCP+LEpJS1nfqzmp7rHy/bf/GjdBNiAMjfId59jnXosMNx1r5R1XHhk7WDYyOOoZtn6w6Oz6CbQ0ZF+7m/qDlw5QC57p2K3SeX081IgLi1z07ySgFQW4Druq6P6U8P69DNxU3PvtJkH7i+19Y3etPWN/IPlp5rr1h7rrWuHh5vsnSPrKKHIjrwNQevtQjobzBc1UAU7D3X4u39o2O2/tGNRcPjhr4/S/eVx20DI4tWD99NaDg0ngiqO3g7wXHo5nL7wRtftnde+wA9VJearhcSKjvOf7W89bSTbkICBJpWaS1icpYo4ABTQnPQpm7w5jySTs7VDd36xfrTfyc1n/i6tPb4q9La5+5JTc9+legVac1zr0qkhv2uY/DmSFXn5Qxy2ntcZyMiYPirPLJJr7+La1qa0vbXSMPWO5JZ2z96x95/w+sckZqesb+19V93OgbGumy9o6csvdfPO4Zu9zUM3+1pOHS3p/7QrT7H0I2TpER02dIzcrz+6Es77EM3k+jpmpS3nv+byvaz3yrf+3wn3YQEgGuQxuRm0lAwm+waSyThlKT3Oobvbml89pX/XENMoOnYV6V1J78hNR59WSKFs7dq+65/j9Qi3iI1eNkkiDlI9YfHJVIQ+7X1wNVjFS3n/oK+FaJCLpTQWrNmtwIrNQVlAkWUYO27lmbvHX2ltnd0Ot3kQebp0+8jJrKIZPyn7P1jJ4kpNNcdvFUAzVCZGqORatrP/rWtfyy9/vCLFnKNY46Dt87XdF0ps3Sf/iN6iAdVfaf+sqL1zP3Svc+3001IgLiafCbHKOA6U1VriQQcB2+2Q01h9ZEXpbUnvibVDt34ceORu52kJrHJ0X8lpq793F9UdFyJsfddb6wfvru/uuvSv9Ydui1Ze65ItQM3JEvX5W+UtZ36dP7qYx8s2XE8vnDHkQUZLUf+kr591AO1B83449s+sRRjDOuBsRkkGO9a+0fi6CYP7H03nyCBPGgfuH7e3jeSYh8c97lDuXL36T9x9I/GkJLQYWvP1TMk8DX7G0oPvPCx0r2nvlmy6zhmMkGApAl5DZvJ6CyWq/iQQE36zIpAWD18dwc0GzUSc6g/eFtqOHx30H7wzpfpbiFVfS88Udt/YxMxht9U7b8g2XquSuWtp/+xdO+JF0t2H/+P4h3Hfla44+h9oktFLUfPZDsHFzqdzvfS06MOUkBhfW/y00DpZhdypzTsTO+4RzchOlhJRkxqA7ds/dez6CYPSHAW2QbGRuyDN+ySJAWlDbS66+pCS/fVGzUHLu6Sponfs3TPqc+W7j7xWlHLcALdhPgJSRd9cqYd4lI9KZTBM1XEiTPKIQWsymbalNR47KvvrD40XpKZmfk+uluXsv0Xn6rqvPiareeaVNF2RqrufEGuUVgOXJJqyP9VHeekitbTUvm+U1Jhy9H/LNh26Fbm2v1z6elRByukeMx9IwnB9UAVnLXpFVLKeL+ld+S8rW+0i27yoHZwzOkYHBuz9o89STcFDXvntT+v2n++q7L9woHSPS8I51YUbX/26aKWI7eydwzhsL8A4PrlHtJNIUGp3tMlvBEXtUP3Plp/+Pa3oc9h9ZGXfusYurmB7tJFnmTaN7Kl+sCl31bvv/Bu9X6XMdj6RqSS3Sd+VrLj2N3ilqO3C7cNvwUGUbrnhFS4/QjRsJS7qV/KXt+zjr5VVEGf9QNPpHNvVnWtFokLgRmhputqlq1n5KpolJFzfPz9jsEb+2z9o8chI6ebNWk4Pv6RdSfu+ZWJV7afs1e0nx2EJii6yY38bYc7CrYNH6YvET+REwxk3qFYJpnCmndx3pE7UHuAfgeoPRBzeC1/37EP0l1C4p3j768dGLPVDd180HD4jmTvHZHsxBSq9l/4H1KDaKvqOJ9TuvN4XG5z75/mOTv/uMB5cEbh9mdz8rcMOvOcgz8HgyB/ZaPI2di7ib4tghijhGT69oHRb9T0XIunm9wg5rAROqIdHRe8Gm3t0K0VtYM3zpGAHq/uuurXPIby1tOV5XtO9Waeljyq3JlrB/6ElJBu5W8dWkw3IX4wMbu6o49uCjpQOMMlNSao7bvzGevBl2eQtPQGdErXHbwtkUxfbzTfexz9I3G1gzdfdgzdkuoPkeOJbN1Xf0Nq21cq2s99hR6nSZ7z0BNZ63uu5mzsk3JILaJgy0Epu7lzXWVlpe6SOGYDmjuhwqD0RUPzEgQ/1h68Y+sd3Vg7cKND1Kdg67+RBctg1PRe+VO6SZNl9s4PkGAesQ3dyLL3X19m7R+9Ujt006+aRPHOE1uLdz0nbJrI2zZUnu8curLMbjc0pwLxxLVoXvtwuCziZ2aqui7PWn3kpY3EDH4JNQDI6GGoKkkrP4HCGT3MDeuBka+QY/vqD45Lq4fvysawevhFcs6NOzVdlwvpYYaIra//g5Vr9ndlre/+HZG0sqntf9PqWryai5mQCyukQCT3Q0CHGLwAYeeYPpbuW4/DfIe6g2Mes6RhSQ37wNhla/9VQ30OGfVtf0AMYZSZAkkA46sHRz8l7/SRIufwo0U7jt7Kbzm2km5SyHR2/1Hu5oGx3I2DiXQTEmbIHdRpbdnRvqzG6kPjGU3HvvomdEivPvqSnNmTGrk8rJUUoi5mtJ36A3qoDExIbTh0e0PDkZd+IA9/JaZA50S8ae0ZWVe5+4aw6dUbi/NXfzC9of1O1roD0qrmLimlbvfFzMzThjrFzYBSY4blN+TSkVx9Dm0nnBmo679RZB+4foS+5HmPbWBsgFSH19LXhnAcvL3W3nv9BKkGH7H3jW23X/tnv0v5xTufnVnUcuzZwpZTHuO68zb112Vv6B3WmnOBeAdKUzA/CIYC0k1BA0ZIyWkwejuo32PrH1tNDOFXrlnQ96TagdFf1g3e/CkYBGyz9V5fTY+VgaXvYZZ0EzEEmDAHBkFqEb+wDd446egb0Rymn7/92Kcq2k49mdp89MN0k5BUx+6/TWvY99+ZazqkVMeuXydUbfwM3WV62FpgcpMqG6UBq/nR/YgAGC1U1XXlsrV31GPSlK1vdI69b/Riw8D4R+gmw1h7r/eQxHCOvnRHkt5j6R2pJVXu52u6LmkOp2UUbj/SV9Ry1GMUGnTIZW/svZm+oftxugnxEUgsSqkqyLAqPfkblfMfrD1Xq+sPj/+ukdQaILOvPzR+09J9fRnJ7DeS/5lhWOjhMnWH734FtsM5UHMgNY5R28CNRXS3B3nOwb8q3n1ia9GOY/9duufEuwVbDr+atakvhe4WkuLY3Z3Z1C6lN7RKybU7h+hm08PmQ5B4HIHglOc/QJDS/YgAW9fFT1m7r45Wqp7hALOkaw5c3Wvtu95IN7lR2XrpI7aB0Spb30iOY/i+Rx+Ptfdatn3ghnCMfQ1JOLBsACQSS/fl/6noPLuA7hJS4Bz8m/wth86VOU/9Gd2ksGpdz4n0ps5K+hLxEVKqapbTSQhK+eR95WdQhHKUVLjSeOTlJSSj/w9oGlpz/J7kGLrdBf1zsK/u4I0W6IcAI4DVi+UTKA1H73wZzITUwv+j9uBtS3y88/10lwcVrWdKq/afv285cEUq23tSKt5xTCpqOSLlbz0oZa3vObmy6YBwYc2U2h3PZDS2SRlNbVKKfcctutn0sFalp9I6HmD11iBVXReqarqvnKcvFWoHLn3C0nttrGaXZ8d0/ZFX/tLef+OAY+jWQfvA2Ji1b9TjO7b2XC+p7R/bSV+6QYxnOyScyvazkr3vulSy67jXDjdSUjqdu77LY0RUWlNbZmZz52n6EvER6CNwJZrgP7eazdaOtiGuMJij7uDNe80nvy41Hnv5d/WH77iNEnMM3dihZxCwOJ+t9/p31IU2RsW+SzPLWk+/WNN1UU4/xS1H7+ZtGuzN3TzwBhhE3uYBKd85KOVu7HsrY23nthUW9+9/RaVzfqJl+6/TG/ZJiTVbXo6PL4qKPlpXv3T7uDw5FNwCmpmUIU2IEGv3lUuV+18ooS8Vqjovptj6R3rpSzccA7cybf2jp+B/S/vFz1sOXP12Vd8Ft+/Z2jNWUjt4U2gQ1V0X+2oHb/yuqv2cVLbv+R+W7Dr2RdgOT6LL33J4ba7zcK58IEfGus6M7PXdHnMfstZ2fHLV2v0jrHSG+EYom2Jd79sh0ZdRg31oNAn6F+SawNDNN6wHzrv1CxgxCHvf2LfV841q+8Y+QwpdndWdF3/dMPyiVNF+9o3SHce2sY7mvJb+v8had+BoZnPXL4hZSKuaO6WMNR1SSt2ef0uy7cyZXun8QzhuafnGz6+o3vKD9Po9UkLV5n96pqT5r2E7gnhg6bp0vnbgxifoSwVLz5Whyv0XM+lLNyq7Ln2OlHDGHYM3i8m5zdbekVHnafeOYpFBVA689nu2vmv1NQcu7rV0X/x88a6TKVnOwb+BdWJgxFLB1sPdeVuHnsvZ2P9yzqbB9fC8a3rqtMy1+z+RteHApWmqZTgSG1o/srKx7VJa3Z6oGrIXLKAABZl4KAZzQElNLq1FEc7hh484hm6/CDVkUnP4LSxHQ3cpGDKI3tHvTNTepfc4Dt5cW3fw1utrjr8qL6thOXDxaPm+Y8LRgemN7Ysy1nReyWjqkFY2tkrpDXuk9Pq9UkrtzmsrapyzFxVv/Mzyyk3fJ6+lZZUbvresYsP/R081PUpMujrI2sdxBqc2JFN+pKbr0sVKgUHYeq69UNN+RbNkYe0bebp++M6RusN3Dtt6r92FWZ50l4zIIODJWOTYrxYKVpos3HYoI2/L4HH4P72pc0H6mv2vJjY4lc7x1OadH05v3HsyrX6XXNtgwDyIVMeuk+kNe2voJsRHIMGEYhRTNFKz66U/dQze+q+mYy9LJE380jE87tE/Z8ggeka+BZNSLX1jK0gh7BvrT9+HhfykmgOX/9fWf12q7Dz/98V7nstKdA7ItQI1yaVNH0px7CpOtm3/N5I+pBTHTimtbre0ombzT4g5fGtZxcZfJVm3S0vL1t2bnuiqWUQDSq02Wqu3vlDVdu6LNftfeNl6wP3xodk7Tny0ov38SHmnsUd+Og7e+qyt7/o3a3quOuimaZbu66Uig7B0XxmH96ebFHLWDXwuZ13PxVVrO5NWru3YsrKpfTiRVokBmMCX3tC6IaOx1aNElmxr6Uqx7sS+pjAjGmsQpGb8acfgjZ/T5qV7q4+Neiyh4c0g4Nza/tF/sfePXia1Bmnzhe/AqKYH9v5bNRUd50uJSbxqHxiTyvY+L+U7h25mbeiZTU/3ID7T+UcJNc72ROvWH6aSGkNizRZZy8rXS4mWrdLS8uYxemhUgAbhA5V7T+VXtJ/9e3juLd0kU7rv+S9Ud146V907+n/oJq9U94581to78sDad20bvLb3jhV4GsSFj1fvv3A7b/2zygNOKgcmOuJWNffMJMbw3fTVbaMwhJVuVkhx7K5Lq9vr0a+RYm8pT6vb00ZfIj4CNW3sgwgOjoGRTFJz+C0swkcy+EHRMtveDAIm0DUcHpcfGuQYuPGu49CdLn4ORObugT+BZe/ztx7+KYxeyly7/520hr19GfUtms+AWFS6fkZCtfPE8soN0orKjdKS0rXSiurN0uKSNWfpIVGBEpPRGJy+UrbnufrS3Sc8Fuer2n9hRWXH+TOVA77N2KzeP/qFmu4rb1TvP19k77uR4hgY3UF3ydS0Xvg4CejbCc3H5cw/o7GtLq1+32ViCvXyAYSVjR1XU+r2etQSgARLS2myvWUPfamQYt9ZQKrPrfQl4iOhSivRmAZr+67b5ElwpBZAMv9+8uE9lq4xZhB3/9cxdOtFvQd2ZW3s+duMNZ3H01e3/i90SKfYd/xTQvWm9dC8RA9xZ/r031tW1rxicfGany6rWE9qEc3S4uLGby3Ls/v8LJdIRYnJaAxOXynZdWJ18a7jl9UdzNX7LyaW7TnZValq34x3Oh+x9F7bWXPgymDh3pPCjq2qzmtPVHVcvGHpvvpNa8+1zXSzTNaGwx/P3TxwK6O+bVZKw941qQ17r6TYd9nT6veMJllb5LkMafW7LyTat1vlE1Qsr9lSkmDdvpe+VEi0bC9IduxEg/CTUKWVaEyDdYOjGfaB0d+CQdj6r5+CgRl0l4I3g4DttQM33jDyEK7YjIw/SKhxniUFJymtfq+UbGshGf+61xaVNiXTQzx4psARt6io8a2lZc0SMQxpUUHDUU1TMRlKTEZjcPpK0a7nrMW7j49WOi+5GUFF+/OLqtrPnavZ5SrpA3BMedvZbTWdF+0wLLa09dRhS/dp4QCA0o4XPlvRdvZnle1nttJNMsvsO/48ybb9X1Lrdo8nWrf/YFnlJnn27orKTRsTqjbLcxmSa3deWF61ya3Dm0Gqx9bEaqdHExN5rxKSQNAg/CRUaSUa06C8dlnf9Z+vPvqy5Bgc+zf7s6/+Md2lQGoYexqG78oGUds/5rZCgGIQ/aP/13r0hu6yGUC8M/79i0vXPL+iarO0pLT52WeKG+8lWbfKGT8xgMH4bKtwstwzBY3EJJp+srioUVpaulaKz3NExYKNSr+YPAcCV6nUpXDbkeTyPaf+3t55ym28df72wU+V7n3+XEX7xMPQi/ec+0rxnufPW5zd8rOjS/aePFLWekpzmYyczUMlBduPumXm8aQqG59bewf+Litc99TSsnVnl1VtalxatuFsUvmaz8MxCdXOF5aUrhM3MdVsXpdg3ebxwJPlVRvXJVRv3kdfIj6CBhE8oFm2fujW2/KqqwM3/qv26EseIwTtg9ftMAx27fGvQT/Ffkv3uPI89rpn734F5lDU9l1/A9Zlops1+fQy+wcW5DrOkLQkPZ1hj4/Jrv3oosJG58J8x89JWpIWFtT96OkcW9f0xEqPkUrzV1l7FxU2SKD4HNtYfFF0TJhDDAITa0r3PT9S3Hry43STDDy8pARqFrtPK8Fduufgh4p2P9dTvPPYYMH24ebCluHTeS0Tnc1qVq7ZX5S1ttvNIOalFH98dmrZracWp8md3wsLG59aUbm5aWlxkzKHYVnFhsuLi9bU0pcKsFwxKRGdXVq+0X1dn8zT71tc2nx0afmGjXQL4iOhysijcRQTDLqw940crh++Iy/nbem5PEB3KTQdfPlDjoGx83UHb/2qydWcdN/RO7YU9m04+83HG4+9LFl7rxkyiGXEIOZnVJ9ZVFgvzc+uVpqV5ubW/fXT2daXFhc3SotILWF+lrWd7lKIzyv/q/gc66+eKaiXFuTW/nJJRr3HUjZmQ4nJUI3MMBslu06cUxsEULrn+PmCXUfdHp5esPPoh8Ec8rYe3Jm/9WBrnnPAbaExnuTanSUpdXs8DCI2pej2V5bmCY1lcX71/1lc2HR2aWGdXJvgWVTa9DFSShqdl1bhdm68w/nokop1t8i+dLoJ8RGsbQcXS/cL86GGAM9vIHrLPjguXIuqdnA0zXHw9teannsFnkkt1fRcOWTpvlYDndxVnS/8S9n+i16fo/JEZubvx6WUniK1BGl2cqlbv8P8VVUrFuY5pGcKGiRiFtfoZgVYYmNeZvWrcMy8VTW/jk2rNP1cGKUwFKpSkdko2fnclaJtRzxGShS0HN2ev+2I9vNrSck9Z1N/a/amXo/SPrC8ZnNJomWrm0HMIAYRk1QgNIh5WTUfJ4F6eGFW3Ty6yY2FJaufWFLa7LE67AqL87GlZWtHl+bVadZmkKkhGmsQAExws/defxb6GeoP35GsPVdfr95/7gt0txtlO058tKbnmqXmwOW3YfkMWF8JVLH3zBtaj9xVMyux4PzczCopJrnQzSDmZJSngXEsyLWDAVykm92Yn1HhgP1w3NzM6n662bSgQfhIwdZDQwXbDnm038MzbYt3Pqv7qMh45/Ajmeu6OzLWdZXRTQpLyppLllVu8DSIFE+DgFrBvKzqwbk5NcLHnQIL8utaFhY0eDzYHZqplpSsuUJfIn6A8yCCT0XbhSehmah2YEyqHRyTrN2X/8nSPxpDd3sAzbU1nS/013Rd+i9r91WpZNdzvy3Zcbwme91+zVrE9EWZfzIjIT97VkL+f85OLZVmJOS5G0RqWXp8lkWKz7ZKc1dWCg0iLq08A/YvyKuVSG3iBt1sWpSYjObg9IUs5+HZhS1HPYwAnhORt/XQudxNfXPoJiEpdXvmpTbs+WGibYfbU8MWlawpWVK61lATU0xqSeXs9PJO+tKDJzKdv78g33GTVJX/hm5SWFS4ehtRF32J+EGo0kq0p8GqzgvbiUlIlp4rsknYeq7+e2X72WZ+dKCa4t3Hl5buPXm1ovW0VL7vlJSzse9Vkr5y6G6FmKT8xbOSC8dmp5ZIsclFUkxSoTRjqdogitPnZ1ZL87NqiEGUaxhEWSYYxNOkFjF/VY3pm+SVmIz24DRK9o6hjxZsH76d6+z1WHcpZ9OALW/jwCB9KSS1dvfcFPuutxJVz7clmXbJopJGYwaRXNAQk1LsNiSW55n8+sL4HNuAaJTFosKGkQW5jvn0JeIHoUor0Z4GLX3XDtcOjMqL61m7r0jWnmuwPhN5feHrlfvP5zudkscsa2Dx6n0fzHEOZGev7/43UsOX4OlvCdWbzy0uXf2Fmc8UfJgUpg7NTit7Zx40KyXm/2Lm8ry3YpMLpS8vzXYziJikgnRScyA1gyppTnqJ0CBiU4vXzV9VDbUHibwvNjEh7sQ7ne/P2dTfXuAc8mgrzlvf/xe5m/ov5m/q16waJ1u2z0+ybP/RCovzS3STTHx+fcnCggYPg4hLKfY0iIRCR2xSyXb60o2Y7LKPzs+xjC9YZfEwgQWFq+cvzK+/sahyrV/P6EVchCqtRHsarDlw6ZZj8KZU1XFequw4/3pF+1noj5AsxCxqui7+pmLfqfMFLUeF8xSADHvnn6+sb2tJb2h9I8m6TVpc0vSzp/Psby0qWk1qBBW/jk0qHvzyioK/nbE851QcqUmIDaJcmptRIZF052EQiYmVf0gM4rtzMyqlOWllv5qRWKDZxGsWlH4xHJlhnGzn4MLczQNjKY4Oj5Unszb0lGWt776g9byFZItzfkL1lh+tKFcbRK1hg5hBDGJWUpHQIGavqrTPXVV9AIbz0U2M9yzIc/Q9nePw6XnZiCdoEKGhqu3cDXv/qFTTfVmy9l1fXLrvRHVF+7m/s8NqrMQs4HkoJbuf+11By/COwg39mktuJ9Q4tyRatshrKC0rXyfFZ9teiOFGLM1ckfN8XFqp0CBmp5dJc4hJiAxiVnLJE7EpJf9DzAb2/xL6NOguBJkAFhQjtYgzORv7y+kmN1atPXAgc22ncPkLUnOYv6x6k9Agns6r0zCINJVB5BCDKPAwCBh2Nyej7EWoRdBNCvNzrU/Oz7a9NLfA6tEvgfhGqDLyaB3FxChvO3PD1jsikZqEZBscXQjbCnYf/URNz+U1ZbtP/mdl+xn5UaHQ31C849g/5m0ZqmIP/wHSLfseT7a3HEmybPtFir0FFtZ7sDDHXs4/hvTTy5Z9YEZC7unZaWXSDJVBzFiRmw7G4TKIIg+DiEsqOg7nQQ1jVmLhQHx8vObjTc2CEpM4D8I3sjb0L8ne0H09ec9BjzVZUq07P5yxpv3yysZ2j4ehL64kBlGx4Ucrita7G8Qqa8nTObWeBpFqzCBiU4qfjEur+M7s1GLhA9jjs6yd87Nr5JVjkcDA2nZoqGg7NQZ9D9AHUdN5fgndLFOy6/kvFu089kLxzmO/LttzghjEUYkYxO9Wre9+cdXati+m1u9pSnHs/knuxj4pybr1Z0tL17cvK1nntuIBY2Zi7rNz0ss9OqmZQUAtIjbJ3SBmrMizQOc2jH4iJvHLuJWlbnOezIpSGApVqcjMZDV3nVzVfMBtBVbGyro9M9IbWr+WUrtrJd0ks7hyw/yl5et/tLjc3SDm+mIQy3McM5ZPGMTMpMLPx6aWvhiXVubxKFRg/krbvPgsy7eiYeZnJBPtNYiK9nO3ZYPY/4JUtvOEcBJa4Y5D+YUtR24U73xWynMOSjkbe6VVazul7PXdUnpjq5Rs3/H88kqnZj8FqT38NSlMfWMO1CBUw1xnrChIh74JqCXEJha+QDdPm7FsVXZMcsFPSVqE4a8SMQvho4XNCBpEAKRv6H6cGMSdVfVtbk9tY6Q27YlPqdt9J8WxXVmDaXHphvmLy9YSg2gMzCBW5Mq1gZjkkpi45KIXSVALm7ueSbV+eG5G1b15GdWvx6+q0Z7IhxgG50GEhop9p3dA8xH0NxS2HDvGNx/xLF597IPEHBpWNXf+SDaI5i4pvWHv15NsO/RWB3jP7JXl1fMyK/8eag9gENMT81PpPpkJgyiVYsAgnM73zkjM3RabXPiL2JQiGPoqkf33wWToKaZHicloD05/WdnYVpHR2PHNtDWdwqWGU+p3PZlS23Im0bLNCSOgFpU2zVhcuuaHi4tEBmHzNIi0Eg+DmL48t5oYhHNmclEeqQq/FJdS6hboPLPTyg/ErSxrI1XnL8zLrLpHzAKbmQIkVGkl2tNgnrPzr4p3HPuf8tZTUuHOZ98p2jHsNldIDTx3Pb2xrS9l9Z7VS+rbtGrH75u3yjJ/XmbNN+ZmVP4O5jjAMNXZqSW/nJWQ71awm0UMAwwiJqlAmpWQ9/OZK3IfwP+kxiGBqcSlFH03Lrf0cXp4VKDEZLQHp79kZma+L62x9UDa6n3PFxU5has7JlY6P7LCsmXP8spNZxaXrm1ZVNz442dya9xKIfoGwY9icr6XBPYukuE/JIE7GLOi4G/pDg/IuSVxaWVnYQ18eD03tfxvSBX5tTkrK6K2GSMYhCqtRHsahAJU/tbhM2X7Tsmd0QVbDgX09LZncuufJAWxIZKu3oXlMeKzLdL8LItECkkvxaaUJdHDFGYm5FZAHwMxB5gvIZGauTypjprG3dnLCjVHTpkVJSajPTgDJb1u7+G0uj0H4zVMAlhcsSkGluxeXNz41tLydS1LC11LdgOzM2qyFuTa3Ca/Lcko+7O49NKxT3962Qe+sDD7o6SqWzgrsag3Jqnwyqyk/DJYeIwe6gExkGwS7C/PSMh3W9Nmzsryz88jJjE7o8rt4USIcUKVVjANTpuWu63/ycKWo78p3X1cKtn53H/lOw/JD8byBRhdtKikcfuSkrVvwFPgFubXudZXyqj62Zy0yronE3I9ZmbDMuAzl+degtoCqUkQYyiUzWFmQt6/TV+WVfbF+BSPIe3RgNIvhiMzAiPT4vyjVMeu46m1O/uX2T3mILixqKBh6dLy9e3P5DvOELPoW5DnaJ2fbblMqr5nYKx1TELxZ2JTC+LjkgsdcSklPyYl/mFSgjkzK6noMCnVWJ94QtsYgNnppStjU0u+PjO5VNhZN5dcY25Gxd/NyagQPmgI0QcNInTA8t+F2w+vL9tzEoaySoXbh3+dt3lgQ2rzAa8PA4K5PwmVGzKXlDb/w/KKDfJDgJaUriEGUf/23Oya4dmpFZo1gBlLij8+c0Xer2LAGFJkY3h5ZkrB0umJmR7Pp0AQvwCTSLJtH0q0bb+YbHV+jG7WhBjDZ58pXZMwP8dmmZ9TMzg3s/KFOekVRGVnYtNLL8emlAzGJBdUkNdJsamFs+hpmsBDTsjxzXHJJVe/sjTPbSkPNbGpZbPIte7D8Fi6CTFIqDLyaB/FxAPL45eQWgQsnUH+l7LWdX8ts7krJ7Vxr0cmH1/keDTZ1pKZWLP1REL1ZgmeFgfPkF5SulZaWFA/PjfH7nXGMzGELXGk9gDNSTMSckemT6/0ePRpNKLEJM6DCBJO53tX1GzpSLRse3lFzaYFdKshoAQ0N7fmT0Gz8ux/PL3SeJA+lZTxqVlJ+ddikoqOzlyR6fXBKUDcyvLeuPSqZ+lLxCBY2w49UAvP3dy/i9Qg5OGsuZsGYN6DtLKx7bvpDa2DK1e39qc27OlPrm3pT6jZcje1breUYt8hz55eUbUJltl4uCC/vpD1v+kxa3n+QpJufgnmAE1M0xPy8LelKIWhUJWKopWEmq2Zy6s3ji+r2NA3t8QunLATJN4Tk1hUOzut9J9jEgq+S7cZYn5y6ZfnrawYAVOjm5ApBGsQnsDzU1Y1d30/e0OvMu8he0OPPO8B5j/Awnzp9XukhBqnbAwrqjf/Zkn5+rULC+v/kr6FLtMTCmfFJhV9D4a2wkilWYn5R/T69qINNIgQsqJ0w+PQ17CietP44vINGxNKmoM2fnpmZtFj0FEdk1x8c1Zi4bk5qRXLYxMLLs5MLGimh3glfkXRY3NXll/ypaaCQKLBeRCTSXLTng+tXNuxZ9W67iupDXt/nrupXzaJrOYDUkZTu5Tq2C0l27aDOUhLy5vfXlTc5KCn6hKXVpIRl1r6A3lexMpyeIDQ/z9zRa7b8PNoR4lJDM7Qsays8anFZWsHlhSvefmZgob+RSVNOYvzV3+K7jbMZ5NLPzQrsSg1JqV47cykgtuzkgouzUjMT2IlntjluU/GJBa8Nish39CEuFlJRbFz0spN/9CTYBOqtIJp0DsptXueyVp3wJHe1O5Ib2h1JNftsiZUOisTLVv+AZqYSI1dWl6xUVpa2nx+YX7tmpmpVrfObWhympNeYZufUX1wTlrp72Bpb1idNS6l5OfTk/IX08MQihKTGJyhJ77I8clnChu2Lipc/fyCvNpXFhXWd8Vn29ris2zNc1ZWLCc1gk/BCpHx8UWPwlC8uOTC+XOSS6yzU8q2z04r3x+bUjw6K6FgjATzTq2lhmFYa0xCwTdJVbmRbtIkJrVkaHZa2UH6EjFIqNIKpkH/Sax0foLU1L8hd1LL/RAbpSXFTfDktwdP59i+viDX/vX4LMvX562q+gd43Kj8wJ+sGhj6Ch3Tr8cmFyyib4VwKDGJwTm5xOfUzn0mv37lvCxLEwxvnbOy8mvzs6rvkv9H5mdUXZ+7suJ6bErJ12OTS27GpBRtiVtZnhOXXrz0iynex2ODScRCTULHJGKTSlbFpZb9y+zk0s/STYhBQpVWMA0GRnyK41GYX7SsYv0/g1HAUNclJU3S4qLVEimYSQvzHPKjQsEc4P/5mdU/IgWztumJOR+hb4GoUPrFcGTG1AETe2Izyv4sPtPy2Oxs68dcKv3Y9MTKjxgZhSEiblnBl2OSCr9Jagld0xOLlCULYhZmf3ROepWDlJoeEvNJo5sRH0CDCG8WlDo+u6R4TeOigoajzxTUv7ukZI20iBgE+V96OscqzcmouDwvq7opLq1iJj0FQaKPGcl5n41LKz0ek1z4YHZ6Wc/stLL9MUnFfwf9DrNTS92WU0aME6qMHEcxBZvM9z1TvHomMYvZC/IbZM3PqIx7ItPyR/QAxAtKTOI8CPMSk1L0dExKWRapNeTEJZcmTE9M/EO6C/EDrG0j0YJSGApVqQhBEGNgDQIJN9AgEMRHcB4EEi0oMYnBiSDGCFVawTSIhBtKTGJwIogxQpVWMA0i4YYSkxicCGKMUKUVTINIuKH0i+HIDAQxBhoEgiAIIiRUGTmOYkLCDSUmcR4EghgDa9tItKAUhkJVKkIQxBhYg0DCDTQIBPERnAeBRAtKTE5pcM60PDYtxvr0tDhbM1Ef0fi0WNs75K+EQhlWrPUB+Ts+Lc66ZVqMrViOqRAQqrQypWkQQQQoMTmpwRlf9AhJzHVyYkYjQIVebxKNEKXSCAyIUKWVSU2DCGIAJSYnJTgnjAESrCgho1AhlvVeoDWLUKWVSUmDCOIDSr9YyEdmQJU/zvbQM8GiUFOi8Wmz7LE0On0CDQJBggVU69EYUOGqWOuFaTGOT9JoNUSoMvJJH8UEnxtqUyiTyre4FqHEZEhGZrhqDeKEiUKFjx76kpgidh5EvONR8llhIMg4Mca3uc+PMqtcvzP83nVyE7+PKIWhoJeK0BxQkSWfTCIUhLQGEWtZRj4j9v1Fs2CUn4/NqqExCDQHVGTKkElE1DwIKDXG2YcFnxUVrYq17jJam1BiMmjBieaAimx5NYmgpRUVIXlf17wi0edERbWshmqqSkwGJTjjrNnim0GhIkoP5cmbGgQlrQgI+vtCR6X486GiXTD/bLblSzRSNFFiMuDglKuy2MaJMo06aGR7EHBa0SCo7+tKjzh6EKWtWNt9b01NSr9YwCMzXBPgxDeCQkWaoISlUYuICIOItVYLPxcK5a6grC6gD9YeUOZUH41wN0JlEEEdxRRGfQ+/P98h7X52THr44/+QeF7/wU+lvvMvSX+6ZI3wvEjRV4r3SP/9zq/lz/TSt/6v8BgQfA9f++6/Sr/9399JSU39wmMmXdBhrYMSkwGNzMDaA8qsErTTRsQ8CGg+EH2eSVbq2kEl8wR+/O+/kI2B3xZWGaYfch68Sj+JJL3z699In0jdJDwuLA0C1ijTQSkM+V0qwtqDh1iJIhiBEMz3Mosm9TuBmdaTRNBqEK40Kf48kyi+ZH391X/0qCk8mb9T+s4bP5b362Ws4awPLmyQfvr2L+X7H//mP8ufpaHrvPDYMK1BvE2jRkjgBhFGtQejTs7EflzGocv3hMf5Kn8zMChtMViQid5LdFw0adJNU1WLCPt5EDAZSvQ5JlEsMwT0ml34NBis9DeZYmkRPiP/v+jYMK1B6MabEpN+B2eYVGVBvEEA3jJP9fGhNoiTN16Tr6MVQGgQxjTpBqFqp/U7rXghaO8bBsNbWYwaKaixdPjGj/7drZbBfmdIL5C5Qj8GvAbgtxfVSpigdvKt138oH8u49dr3pKetnW7HebtG1+k7bserxdI0pENmdlpxGa0GETbPc1Bn+OqA48WXcBhTbRAiTXpmGAGafIOwnaTRLuN3WvFC0N43DAyCpUUjsa71e7Ltr37noZJW4Ri+s1uUxsGc4Dzg7v3XpWuvfFdpytK6xmsPvu92DDsf0MoX+OYlZoIsjYvOiT6DiLN9zuNiUygWlPBjs2qrVgmblXC+/9bPlMBAg4gMTfp3ArVkDr/SigGC9r5hYBB6GaVafDMTn17Z7wzAb72u75JwH38On2mrawulO56Tj+dNRe8a7HitWhDLQ/j0zLaJjCsSDULpF/NrZIZrKW/xRadAfKnFWwmGBTAEBCudoEFEhib9O4FaMgcahL742rmRNMUfLzIIrd9ZlMbZNqMleL1reMvQWXoWGZQ/7zdlChmupYPFF50C8QGj90OxoACXfyxxvTCYjQa5KNNXBx0rVegB1xAFq9FtIPW9FGw95tYOC8d7G3cObbcX7v69/P4MGJoIRir6rIF8TyC43pnb9+Whj2oe/Otbkr39jNvxIK3PH1Jx6zOFyiCCNorJZAah1VQsKq2zOIPYgaYltbTSktY12Pvx9wUSNS8xsXPUnz0SDUKJSb9GZkDbrOiCUyR1iUIrU+J/QK1gDiTjU2dgk20QfJutCPX3wQRVanhfb/DnB/I9gdhvpof6HK3PH1LBctmUsJ8HEaFNTOrfk/3OWpk3288yaT4W9RClJV8NQlR7YdJqZopEg1AKQ36VisJoBBNI/aOpAwi2qZ1/MgxC71heovOMbgOx9wdgH19bgM/TeuIW3esZ8LyJQWDz7befy97uNrqDv/9AvicQ/GYwugRqCurEdGzka/I5gKhkqf78IRUM5w4xZqlBgLzFOi/2e6pL42y7Pwahjm8tebsG+xz8+/HXgT5MdS1l7GsP5H3q+GTnTWrcGpEOgRpE2IxgAqkNQpR5sWPYa9ExetvVEiUErQzMW6IRnWd0G4i9v1aw85+Jvwet7WqJ7j+Q78mIfPl+Q6uJ5ZHDfh5EGBgEK3CoM32RWJpUxy37nbXiWV1S52MxlAbBzjGCKK1MbtwakA5KTPoVnKKLTaHUBgHiA/WJ3BaPqqxWBhdIxuctA9fKJEXnGd0GMpIJi45h35H6/dQSnRtqgxBlHlqfP7TiDSJIGbmKoL1vGBgEq6kDenHBH6fO1L39zqKYEuUBemLX8MUgjFxDZJBoEFMs0Q/HZ2CsI1RrfzQYhCjDFW0TSfT+wTII6KyGZiyonsPvpF7YDQ3CB8LAIEAsrgBoLlTHFgyigN8REMUe+50B+K35AQt8f5lW6Z4fssoEcbbv+E3lNTveqEHw8a42NF4i42PnTm7cGpAOSkz6FZyii02htJydD1T1j4MGMXHeVBgEJFg2D0UPNAgfCBODAPFpD2CL9fFoxR37neEcVmCA35wvPMBsavV5/DXhXNY3wM4TxZLWPbC4ZZk8O95I05k65iPRIJR+MT/nQYgvOEXSMgjezdWBgAYxcZ5WImESvX8g3xP/uwDQWV3S8pw0u7JNml6yRz5GdL9anz+0QoPwV6Kh0/DbaQ1jZmK/M/z2MBydH7QA54tqCEzxlv0eS22AMamHefPXEMU+i1tmEFp5jEjqZqZINIjAEF1sCqX347F96mohGoR4m0ii9w/ke2LX1UswonvT+vyhVegNwkyjmIIh9jt7i0tUgNJBiUm/RmaILjaFYpmJXgaplhGD0Hs/MxiEqENNJG8G4ev35O/9an3+0GrCIHAexOSI/c5oECGWDkphyK9SkehiU6hgGgSIZWBaAaqVOXrLwLXez6gZeHt/fzNcQKsWAJ/18svflo9Rv7+/35OR81izguh+p8ogQgXWINzFfmet+EAFSTqgQegYBCtZA/woDDiHnzgGGDEI/v1E7aei84xuA/lrECB2Lrwnf2/wWWHECN8xqH5/f78nrfNAMMKF77wOJ4PAeRCTI/Y7o0GEWDooMelXcIouNoUKtkGAWMYpAgJXVKrWysD4a6mBaxs1A633D8Qg9O4NgBmjzCRE7+/P9+TtPLgmm5UaXgYRpIxcRdDe1yQGgZok6aDEpF/BKbrYFCoUBiEqBUPGxUZfiDJlvQwM3g9Ky/z7wVA8eDDJVBoESPRZ4d7YyA/2/sH6nrTOg2tCLQauKbpfNAgvoEGgfJEOSkz6FZyii6FMKcjI9YzU/EKDQJlUOij9YmaYB4EKnaam1B5OQoNAmVQhQ3QxVEQKDIBNJGKT1Jj4JRF8ab4zl0JvEDiKCTUl0kGJSTPMg0D5L1ZD0EPUbxE9mjAInAeBMpV0UApDfpWKRBdDRaSgj8HXJ7tFlyYMIlRgDQI1JdIBDQKFMiS+iQnnQaBMJB2UmPQrOEUXQ6FMKeykRplUOigx6Vdwii6GQplSaBAok0oHJSb9Ck7RxVAoUwoNwh/Bstvqpb4B6OsauvhVt2efg/j5NmrUfWF6x4ow8gwHJngOO0xo5ZeYYRNaRcerpV7KXk1YDRfXQekXw3kQKJSe0CB8kSjzBlMA8WahzrT58yBDZufw8A8JgkycHQNSZ+j8vm//y48NGYR6RB+cy782MtSbNwj+HpjA7NTmOGUKGaKLoVCmVOgNwiyjmPjMkV9uhRcYAcyvefU7D92GTjODEJWwYdFIhtbjPtm1AymhwyKScN9L63rctrNlX4y8N7uPiBgaroMSkzgPAhVs8au1aiXoyNGEQeA8CH2xdbf8yRz1DALkbb2xYBiElnjj8xbPZjEIpTDkV6lIdDFUVMjIwoBmNYhQYYYaRKBLsngzCL3FJkGhNAi++QsNwgiii6GiQkYMwlzim5hwHoSW/FlRmVc4G4Qv740GAYguhooKRbdBBCkjVxG0950ig+BL2P6u+Gu0iUnr/UNlEHBfvsQ8fx/XXvmuotWk5hF2hqGDEpN+BafoYqioEBoEGoRaek0wWmt9qUvYWgYB21tP3JLP0cv8g2UQcD1YegYydXhoFbt3GEFlJINn96GF0feZFOmgxKRfwSm6WJjryfydHuOyIZhg2Nm+4zc1fzTRefzDdNTH84kFSjvwWu+BOiAYM/6t139I97q49dr3NIfDwT35u36SOoOHESX8teE7EX02vl9BC1a6M9Ierfe9qleVnVqhQXgTH/Nqg4DfGeKLDfNkw1F9HeYKsaTX/h8sg9AyNK1RWSLBZ+HTD7yGkVjsfcOmcKWD0i8WDfMgWPulHqKqK/+jioCgUY+v5gMdAlzvfBjLDZmkFloTfIx8Hq0gZAYBwwzZfYpQnx9MgzBy/+HTuY0G4U18zGs1ATGx2NAzCB6IIb3CEpM3g4D9rGbAy9sEODZxjuHt8+mJpSFfJu6FVCFDdLEwFV8iUFfv4MeHEjRk0uofns8Q4Ty+VMs/WF+rqsyAgIXHaLL9UKLiH8oPqMde88YkCkjIYCHRQIlGfW0+mEWZLDMIAO6Nry3A+aw6D+idr1cK0jMI/ntVJ3yoSbHvJpoMwgyjmIw2PXozCK0M3pu8GQSfD/AY7UxmhZpAMvdg1XKCJh2UmDT7PAj2w/oyqoD9kIBWiUErE+QNQj0ZiInPJLXenyU4f0ZD6CVWb+/L37/e+f4YBP+96p0Pv1k4GgTOg9AWi2lvmd9UGUSg0oppXxRJBqEUhvwqFYkuFqbyx/mNVgVZZsln8nwG66u58PLH2Jj0zjWSwRsxGH8MwmgmEl6aMIhQYYYaBB/3ejEbqQZhNE/QUzDeI6jSIWoMgv0ogNFOUJbB6mWCINFxwTIII8EEzVXQAQ6jLfgOQIa/BhGowWh9vkBMb+rENzHhPAg9sd8dEC1ZAWLNp+FoENA8q25OBkE6E9V84ZrQJArXZDVeeA/RIA/+8b1a+cKkSwclJv0KTtHFwlh8uzyP1mgklgkaZbINQtSPISLcDMLIueEn7KT2RfDbq2PTSOElHAyCT/fwPupBJupBKbwhsrTOvwcbjcUDsa9OU1MmHZSY9Cs4RRcLc0Gmqh5WydDKyIwymQbBEgIDOnpLWp6TZle2KSWfQDN4NAheEWQQs+yx4s8w+VIPnwYgw4R4FdUswsEg4B607ltUkBTVIOA9oFavNsSwfHyvDkpM+hWcootFmNTr1fOZFssg/cnIQm0Q7N70zg13gxC9b/gqggwivuiRabG2d8SfA4Vy05s0aoQo/WLRMA9CTywz5DNiljn7k5GF2iAmI4MPlUHoNZuFryLIIIBY233x50ChOMVaL9CICQGiC4apoP9Br2onygz5ZhytTJ4JqqT8ZJvJMggt84Lrsz6XUBqE1vVBWp+P/169XR/nQfhJnK3P8zOgUGpNxLUIJSbNPg+CZWjQBqhu+9QbWcAyaEDUbgrnss44/txQGwR/X2AEfCbN3xMQCoPgr89PAOSl9/nYewPwvfIjRsJ9olzYz4MAYmzF4s+BQrkplUaMEKUw5FepSHzBsBTLEPXQKg1vGLisGIgek2kQIL3PBCMtYNgrEAqD4D+fGvZ5vX0+rVFlPOFoEKEiqDUIuR/C+kD8WVAokPUejRZNosYgQKxD2p+RBbAch2hUgtaciskwCLiGegFAuB8o0UOGbqSJyF+DAMH1IZNXX581tRn5fKJRZVrf6dSKb2IK83kQjDAazYQKM7kGMXyORoomSkz6FZyiC6NQplTo+yBC8r6x1l3iz4OKcjXTCNFFiUm/glN8YRTKhIpQg3A1NaFJoCYE8WAQJSb9Ck7RxVEoUypCDYIBzU3YJxHdgt8f4sAHlH6xaJ8HgULpK8INAnDVJuqILpDP9NDzM6JMJzCFWNtJ+XeH339SEd0QCmVKhd4ggjqKyQjxjkfldZtQ5lQQDEGJSbPPg0ChAtOEQUTEPAgECQJKYcivUpEwIaFQZtSEQYSKSa9BIIgX0CBQKEPim5giZB4EggSIEpN+BacwIaFQZpQJOqkRxEeUmPQrOIUJCYUyo9AgkOhDiUm/glOYkFChkpGlK1ChEhoEEn0o/WI4D8JT/Iqlk7lonNZ1p9ogpur7CA+hQSCIbwgTknmEBuEuve/DyOJ/ka3QG0TIRzG5ZlPXTYuzD8sTqISfExXheihPjIO1lmAuRIAoMYnzIMJf4dzEFE0GEXHzIGIty8hneNPzM6FMr1jr2/KzQfxEKQz5VSoS3RAqZEKDmEpNGESoCHoNAmZKQ21B+HlQUaaRaTMtj9HIMAwaRAQJDWIqxTcxRcA8CNkccL0lFCe5NuH4JI0QQygx6Vdwim4izCV6QA1kuPDQoH3Hb7o9GEcrQ1Y/DEj04B54ohv/ECJ4WNG3Xv8h3esCHrX5tLVTOYZJ67p6BgGf68zt+9LrP/gpffcJvD0QSZ25s++Iwa4nuj7fL6EFfEe+PN+bvafoIUlTpwjrpMaaA0osnwo2Skz6FZziGwhb8c9B1oLPvIwYBGTIvDGogSeu8ZmtGlEm6I9BGPlsWqV7ZhCvfueh1Hrilvw/TzAMgr+O1hPqQPx3G161kQgyCFefg+AzoFBEsdZqGileUWLSr+AUXTxMxTI34Pqr/+iWQcHjROFB/5CR+2oQAOznH9wPJXD20H0G1CiW1vUox5TueE65H3WJ2l+DgBoJ1BT4zwb3yj/7WTQai2XcDPh+RI/71Lu+kSYm/jfQGhWmd42pVYQYBKzgiR3SKD3B40YN9kco/WJmnwfh7fnKImllVrxBQKlb9H58yVqrSUWrRK113UAyT70MnO2D2oyoyYtJ7/pGDMJI7UDrO5l6RYhBwNBG4f2jULys2TRiQojwwuEpZhC+tGsbMQitzN9IZq5lWqEwCD2DNJK5gwI1CBAzTtF7sPcHJnPeiTGF3iCCMopJnucgun8Uyk0dNGJ0UWLS7PMg+BL9j//9F1Lf+ZeEzSi8tDLEYBmEVmes1rlG3hOat6DDfOxrD+T+kYc//g/5GoypNgi+s1p9rD8mPnmaMIiwngfhmiQluP/JF6QTiEV1DEJcQvoLrxqi72LpAdCLe5Zf6KXbKZChvF4pDPlVKhJfOGzFt8XzMMNQB6xWhhiOBiHq9xAx1QYBEhmBL6OcpkYTBhEqglKDCJOhrRDbECsMSGPqAR16aSMSxOIY0CvUhKVBwJBXA0SVQYDYEE4+UBlGM+RwMwg+cwWgs7qk5TlpdmWbUksKlyYmEHsfgH1/Wt9F+IhvYgrjeRDCe59c8b+vekAIiC/MhO/vrS+W5uD+x7/5z/Jn0WoWDdMahKE4U2LSr+AUXTTCBPMTeMPgMzitDDHcDIJl/nrXCieDALHj4X4eS1yvfJ9Gz598RUgntfDeJ0982tD7LcO/xqgvlnbhM/L/i45FgzCBRM0ekWIQRjLncDMI9tmBoYtf9fpdTb3QIIxIK6ZF0opJFmcQS5DW+EmoECOiWgkT1E6MTEj1do2u03fcjleLxTvUGpjZacUvGkQECPof9GYTi4JVK0MMV4MQZf4guF/W/xJqg9C6B7X475Bh9NypERqEEbF0ZKSg4C3OYQg5ixE4hu/sFsUKpCc4D7h7/3Xp2ivfVZqytK7x2oPvux3Dzge00jbfvMTSLYt/0TmRbBBKv5jZ50GwHxCWneAnrIFgkhwLDP4H1grgcDMIvjQORsAnHPhsfOd1qAyCvwd+0qCeWGbCCL+hrbzQIIxIL6NUi29m4n97FmcAxBofT/w+/hw+01bXFmBSKsDHvt412PFatSAW63x6YdtE6SuSDSIwRBcNU7HA1UP942pliOFmECC9zwezuGHYKxAqgxDVCBha3xGfQWglxvBR6A0iSKOYBPc+OTKSLnjxx4sMQivtiGopbJvouqIM2kgsa12fpReRQfnzflMmAygxafZ5ECDWIa0el621mJ1WEBlJCN6CHBRMg4B7Ui8YCEMLoWQEhiBqQmMKhkGA4B6gBqO+B632XCPfY/howiDCeh6E8N4nR77+nvzxIoMQxSpIVFpnMQxpGZqW1FLHrbdriEwAJGpeYmLnqD87+5x6ecGUyABKYcivUpHooiiUQbGEHnYJR6gJgwgVkV6DAGllkiJplbq9Zd5sP8ukeaPRIxgGodfHotXMhAaBQvkoPlF7q7mEh/gmJpwHoSWWsRr5TdUZvXq7PwahztC15I9B8NeBZlt1LYU146qNAA0ChfJRLIGGXaLRFHZSG5FWs6lIWs2e3jJvdUl9sgyCnWME3iDRIFAoH8USoFYCDT+hQRgRP/BAr5mJP06dqXsrPIhqKXpNPyL5YxBGriEySDQIFMoH8SUxoyW+qRcahFGxjBRQD7sG8cPKRRk0Hx+QqfIDSPjnqGiV7kXDrGECHTwxkr321SCM1lJExhfJBqH0i5l9HgQKFZjQIHwRbxIAW6yPRytzZpk3nMNGHELmyo8+hNnU6vP4a8K5rG+Ancdfz1eDYMcbaTpT13Ai2SACQ3RRFMqUCr1BmGEUEy/RwpiQSXp7RjqfecM6XWwVAADO15uIKXr2u2h5cV8NwpcmLHUzkylqENEwDwKF8l8TBoHzIEIrb5k3KkgygFIY8qtUJLooCmVKTRhEqDBbDcJfoUFMkgyABoFCGRLfxITzIEIpNIhJkgGUmPQrOEUXRZla6g646BF2Uk+W0CAmSQZQYtKv4BRdFGVqoUGgQaBMIgMoMelXcIouijK10CDQIFAmkQGUfjGcB4EyIjQINAiUSRRyRBdFmVpoEKEzCBzFhJpUGUCJSZwHgTIiNAicB4EyiQygFIb8KhWJLmpS6c0KhTVetEZbiM6DZQDUMzvV55y5fd9jaQLA2yxUdQbOrs8QzebUu8fpJXvcjlW/P6yrw89chffX+2yRqwmDCBVYg0BNqgyABmFA6nVlRIhWruQXFhMBa8qL1nUxcj2tEjzLwOGB760nbsn/86gNwsi1+MXJ+Pdni5eJMF8Ng29iwnkQKBPIAEpM+hWcoouaTGxMNgALhPEl489lb5dL0FD6VhsEW48FgPP4kjic8503fizvE431hkz71mvfk2sK/D5Y04Vfl0a0qiTLwBnqa/Pi7xGuxz/sHda0YfcoMghAXVuA++NNSXR/kSvspEaZTAZQYtKv4BRd1GRiJWxfJu0YWROfGY+oyceb1M08on2wUBif4avF36NeaR8+v8ggtL4PtjAZYK5aBBoEymQygBKTfgWn6KImEzMII8v8MokeGiISy2yNPL+Xl55p6ZkHL3aPvhqUkfc3eg+RJTQIswgKMTmbh6WSlueE+0OlqbqupgwwMYopreNNCM4nMvc+Rvd5R3RRk4lvhtHquFWLZeDeMkhvx0Hn8e5nx+Rn3UKHNb8ePhCIQeiZjJ6MvL+/7x3eQoMwIr4GqQbSj7op018ZTWMglobZsf4WjgLVVF1XU77g6njrkJ5Ma4ulm7wTa30gvLDJxLf782iNRmKZqFHUQQ7GwNr/9QjEIPwt5UevQdiaIeShACVn5KRAJaeBIGKGUUy8QUD6gIKNqHCj7s/zVayJ1pcH+LCm0sTGfvlcrUEiodJUXVdTBlBi8sn0jpOuwG/Lpvu8E2u9ILywCSUaCspQlwgCMQi+bwCAEhdUSWdXtik1F70MGA0iZEqFkH+8yPnIF9I7UkmiqZPTQLghvvdJEzMIUSkZ9kGNmKUhX2OPF29EeoMhWHrypYk4amQApVb75MqOXfKL1Ha5pGSIWOsu4YWjQDDKhzcMPth9qf6qxc7Vq4YG0yB8zcSj1iBmW75Eoz5kmKkGoRe/fLNtICPdjKQzdfMSipMBJgyClIhcL9o76D7vxFmzhReOIrEg5UsoLCj9ySADzYCNGgS7R19LVlFrEPFFj0DIk5p28VNp7cOhmEmtJMZAEN37JMqIQYC04khdywCgqUr0mFEjzUzsOrwRaS0nzrbDPanvAz5P1+k7yrFqiSaMqpvRtK47ZTKAEpNPpbUtg1oEVJ/pPu9AqUp0YRMJ+h/0Zi6LMkMjw1yZILD4wGMBrRVEELisT0R0jFGDCHSYa1QZBPS1UaAABQkmFE1M0WQQogIKy0ABaKe/9sp33TJddVpi1wJENRGt5iVvBvHag+8rfYDwOdg9AaL0zOIdgOP5FRD4dBLRBuEX8Y5HhRc2kViGCEtcLK3rcdsHmTsLHnXg8NVo6EcQncuCkD+XPw+MgA8k/hwgEIMA8YEN98iPzvI2US6qDCLONkIjXumr86kgZZBoMgiWefPHQeyDMahHOenVdlmsieKRnafe580gALgvvtYCqyIAWmYDqGs5cA6kYfWxEWkQ0PnmVxtonO1NjwubSCxD1EPrB98wcFkJHj3U5qJ3TUhAMOwVCNQgQFojtHjQIGxKsytJLPcgwXwxpSPofRJKYgwE8f1PmgIxCC3pHcsyXZF5sFhV1y68GYToOlqfS8+g1IpEg3DzBDYXwrehrraTwoubSKxDWj1Uz9vCeSBYjgPaMtXn6s2pgGDUaoeFwNLLgH01CFAgi/WJZEKDkGsLyhBXl0E8Ksd/EEGDEEvvPdk+gDcCreYlkDeD0IpbteFoXVtLkWgQbrCRTKQa3Uc3eScK+iFQUaxY230a6cpADpI+lCanYALvSwpp7wRkPqLPMIkKhkHAe1hbT8srGkM/BAgyVq33FJXitZqXQME2CCMmB4pEg4DagzIgA2oOcinG10lAUAUX3QAKFfly62uQB3P4UsP2AZL2Am++En+GSZPRTFPUrwDnQk1WC633FNUWtJqXQGgQVF6AgoqHH5AXD1wb25bRTd6ZaXmMlLTeEd4EChWp4moPkFign46+DAmsA9ynyapqRJ9jEmU00xQ1VbJt6o5qI+/JzoX+PGYYWhlxsA2C36anSDMIpcJACi50k6tK4QrS9mG6yRhYi0CZT0rtQe6sS29/m2TixXRT0PFrsqoa8eeYNBnJzFlGyWeseucZeU9WI4HMl404Eg1JBQXLIPhtRvr8Is0goKAC8QgFF7pJLil9Enb4XFrCWgTKTIJlZDiIOTyExBLKR43C0FlYEw36Ougm3xF9lkmUt4yef4gWn6my8wB1aZz1MegZBN+nAQNC9I4NpkEwYwLUw1xhWPq58W8pryPOIEhBRTYIUnChm9zxaWVXIIqX3kCZSFDQ4ZbW8LtvbiqItb4t/EyTJD6j97ZYn/pcZgTA3fuvy53T/Hl6mT6IZeCAXiYcTIMA8UPF4R4jYqIcxLgXoBWJ1mir6SYXcoKAIa9EPtck4uzDwhtCoSJBkHBiLW79bySRyJ3HPi1D4weQ1qCGEtAkvCleQJM3CDWQcWoN7WaCGgZvCtAfAUPJIXP2ZhB8aV6reQkUbIMAqe+bDRP35f0nVVz/mhbQnAoxLxyUEVCiQJNARaJE5kBKT3I68Kew5AeuNNch+X0teG6F6LOhUO4yPpVBBAy1I4niHQhWv4b1oUmgIkkCcwCgmRXmJ4RiaQ0RJL25Cmbqar1RoGNd9PlQKF6xVt34glGs0MSkm/dPTJxrv+9XiQZNAhUJ0jAHGLBB/500XNV6V5qjm3wD1keDzyP6nCjUhD5HI0YIMYcLtKCiPaIOTIHUIuR5EX6XoKAqI75BFGrqBZ26AnNwjSjys4k1AGiak5e88XvEFDz9TvRZUSgQDCbSQR7JCrGf1vGO14FKEKQ+TZoTASNCoujpc6gIkFxrIAkFStwqYFIcy6T9buoJAGU+BCnF0U2+E2e9J/zcqOgWLF1Pn22iBRSKaPwZnwvnSjTtFwKqds+yx5KbHPe4aRRqsuRqfumQ5+0IgDiH5h05gaS3j9PNk4rc70FMIqC0Bk0I2NSEUgvyYB3carC+LPkCbgInwYShgAIXiLE+TW4WjQI1ybIPaxkDwJsDxLnP84BCgN+jmQDZJEiJUfhdoKJMD72ZA+DqnJYHJ00sr2EEdeIJ2CQAqN6DWUCPumt43jgGNCoIInEEy9DLMZVqJGEAENMQ20GL7wBwpTfX6q5fSG/V7VDUBZoTcAJrlIsUjARNqVpAwcivmAuJSSDIFANxTSRXpyGmwyWuYQ0cSGvEJB4EVJMAoDYBnddgnFgIM7fg93U9p6eZXxHAGxBvfk1p4IHEpJiE1hodCBIhsHgmepuZRLjAjyL0qcMQQXyEm9LwdsCFETlR0cfQwZtN1iQiBAkmtL3V9RTFMK0RQ1UfEq3rHkO3kiwSvUwM6Q7BYpQwkYIG70hAbaUIMknQ2dGu5hs5dtvvh6M5MLg5GVMyqgoxLxD3rACiOynOX6BUw0ph0KEWkosgSBCBRCHHagTFK5gEq/qHw+gqxBxAocOVdwcw58Yb0OTEhsFSo3iAQYyEEyRGv0Ri8x78hdeQ4UZijMLEPZe5BfDUOSTqYYUNaFKiNWj/n4NuFNes644HzI0gMcLDT8hfHO2ETDpyUxKJP0gArPACTaF0d0TCF8TIZ+kLuEMRiTpompiaeT4QsMyNlCUDZJGqDCn9TIpTIVGPXFhRYk/uZ3gblhAwQ/wptQjX5wrr/hMkfIDYh8L7RJqY4kEPrhoFKfHQYGYiNypX8139F23ZcBx2cCO+4oqvtmwYUQeZPxRCoGQE+6CgAqZAYuykGZtjlId6udKUb7NekagD0oDcuiMbAyksBbq+XjBxJVYwA5d7TRjERNWfFysRQWLH/dG8H0YaQScaJxLkbD+XQbop4Mk+EQL5HtzWRyPfT0fAazghpoE1P0JTEldIh3648I0PuFl249AW5jINV8JnCZx9gPDPwHD/FO1nNdA+ohGoQYCgRsHOjTZUmQA0H5yE74PuRqIISB+s5UZJK6TgAPkty3sRBIkywBBcta4JM4XX8j5inJBBYHOueYBCASsQsd+eFKrcW2Vw2gGCIDxybQImsKZ1vMkMgp8t6ya6hAc5Tn6SHe4Pz/3QZzDR1EofS0tEzpOfLS0PXFC2tb+NTY0IgniF1RaUZgeSwbg13U1SBof7g7+fGQHsBzOAQgDUJLAZCUEQBEEQBEEQBDGK/IxvS/iMY0aQSATTEWJK4mwj02Jt9+krBEH8AdMRYjrgEZoTT46qplsRBPEFTEeI6ZCfL2x7gQT1fZes5+RtCIIYB9MRYkpirXUkmG+T4P4J0TvTYqw3SIB30L0IghgB0xFiOmZaHpODOc56h/y9SwJ6nOgl1zYbzoxFECNgOkJMSZx9mASwRAP7J9NmW74tB7arDTV0T4NCEDOB6QgxHTAcTw5qJbChxAPtp67AdimVHo0giAhMR4gpibPeUwI41nZ94n/7lYn/rQ+wow1BdMB0hJiOOGu2Eryg2db+idf250mgQ9spC+46ehaCIDyYjhDTASWZONubE4FrO0kCfYvyGtpTY627uP3vyJ1wCIJMgOkIMSWioFUHtjr4YRuCIBNgOkJMhzIcjwWszfXgD3Vgu7apqs8W+SlSCBL1YDpCTAkMuZsI1jeVjjNRYAOu0Riu7bi+DIK4wHSEmI4Y69MTwStrYuidVmC7DeEjirEV0z0IEp1gOkJMCV+KgZmePFqBDcDrifPepFsRJDrBdISYEnmUBQ1QdTuoXmC7t7eO0K0IEp1gOkJMC1SHRQ8z0QtsYJY9FqvFCELBdIREFd4CG0EQ72A6QkwJBjaCBA6mI8SUYGAjSOBgOkJMCQY2ggQOpiPElGBgI0jgYDpCTAkGNoIEDqYjxJRgYCNI4GA6QiIamKwT73iUvprAW2DDWjMxjk/SVwgS3WA6QkwHPLAEZnKCIMB59ALbbclichyCRDOYjhBTEmd7OBG8tj661YVeYMNSxmxfrPVtuhVBohNMR4gpgZKPErxE/DoyWoHtvn4MEZZ8kCgH0xFiSqCK67YSpfUe3aMd2PzCZPy69wgSrWA6QkwLLDA2Eagg11r2osBWr2HPr3uPINEMpiPEtIiehiUKbK1SEoIgmI4QkwLD7NTtoerAhiWJlddE6nXvESTawXSEmJZY6y4laCHIY62tE0FsO0b+0uF4IFoSQhDEHUxHiCmRq8Nc8M62XlH+j7VcnvifBL16rDeCIC4wHSGmxa36a71Dgvvb5P8fkL93JgLbWkePRhBEBKYjxLQoHWgkmGOt/0T+f5XoJRrYD3E4HoIYANMRYkqUIXgQ2HKQQ1CzwMbheAhiBExHiGmBzjNXYP8T0U9IQEPVeITuRRDECJiOEFMCnWdxtjG55OMq/YzgcDwE8RFMR4hpcV9fpoNuRRDEFzAdIaYEOtFirQ9IUL+Jw/EQxE8wHSGmBTrTcDgeggQGpiODTJv2/wBuAlEkExrgGQAAAABJRU5ErkJggg==;clipPath=inset(15.13% 0% 0% 0%);" vertex="1" parent="i8amOK9L9qdCyyJ3UUeL-7">
          <mxGeometry x="390.19" y="270" width="189.62" height="140" as="geometry" />
        </mxCell>
        <mxCell id="i8amOK9L9qdCyyJ3UUeL-59" value="Weaver Peer&lt;br&gt;backend" style="rounded=1;whiteSpace=wrap;html=1;dashed=1;fillColor=#dae8fc;strokeColor=#6c8ebf;" vertex="1" parent="i8amOK9L9qdCyyJ3UUeL-7">
          <mxGeometry x="390.19" y="410" width="189.81" height="60" as="geometry" />
        </mxCell>
        <mxCell id="i8amOK9L9qdCyyJ3UUeL-18" value="" style="outlineConnect=0;dashed=0;verticalLabelPosition=bottom;verticalAlign=top;align=center;html=1;shape=mxgraph.aws3.cloudwatch;fillColor=#759C3E;gradientColor=none;" vertex="1" parent="i8amOK9L9qdCyyJ3UUeL-2">
          <mxGeometry x="60.5" y="510" width="50" height="50" as="geometry" />
        </mxCell>
        <mxCell id="i8amOK9L9qdCyyJ3UUeL-19" value="" style="outlineConnect=0;dashed=0;verticalLabelPosition=bottom;verticalAlign=top;align=center;html=1;shape=mxgraph.aws3.iam;fillColor=#759C3E;gradientColor=none;" vertex="1" parent="i8amOK9L9qdCyyJ3UUeL-2">
          <mxGeometry x="70" y="420" width="31" height="51" as="geometry" />
        </mxCell>
        <mxCell id="i8amOK9L9qdCyyJ3UUeL-23" value="Endpoints" style="sketch=0;outlineConnect=0;fontColor=#232F3E;gradientColor=none;strokeColor=#232F3E;fillColor=#ffffff;dashed=0;verticalLabelPosition=bottom;verticalAlign=top;align=center;html=1;fontSize=12;fontStyle=0;aspect=fixed;shape=mxgraph.aws4.resourceIcon;resIcon=mxgraph.aws4.endpoints;" vertex="1" parent="i8amOK9L9qdCyyJ3UUeL-2">
          <mxGeometry x="158" y="325" width="30" height="30" as="geometry" />
        </mxCell>
        <mxCell id="i8amOK9L9qdCyyJ3UUeL-24" value="Elastic Container &lt;br&gt;Registry" style="text;html=1;align=center;verticalAlign=middle;resizable=0;points=[];autosize=1;strokeColor=none;fillColor=none;" vertex="1" parent="i8amOK9L9qdCyyJ3UUeL-2">
          <mxGeometry x="31.75" y="363" width="110" height="40" as="geometry" />
        </mxCell>
        <mxCell id="i8amOK9L9qdCyyJ3UUeL-26" value="IAM" style="text;html=1;align=center;verticalAlign=middle;resizable=0;points=[];autosize=1;strokeColor=none;fillColor=none;" vertex="1" parent="i8amOK9L9qdCyyJ3UUeL-2">
          <mxGeometry x="65.5" y="471" width="40" height="30" as="geometry" />
        </mxCell>
        <mxCell id="i8amOK9L9qdCyyJ3UUeL-27" value="CloudWatch" style="text;html=1;align=center;verticalAlign=middle;resizable=0;points=[];autosize=1;strokeColor=none;fillColor=none;" vertex="1" parent="i8amOK9L9qdCyyJ3UUeL-2">
          <mxGeometry x="42.5" y="560" width="90" height="30" as="geometry" />
        </mxCell>
        <mxCell id="i8amOK9L9qdCyyJ3UUeL-28" value="" style="sketch=0;outlineConnect=0;fontColor=#232F3E;gradientColor=none;fillColor=#4D27AA;strokeColor=none;dashed=0;verticalLabelPosition=bottom;verticalAlign=top;align=center;html=1;fontSize=12;fontStyle=0;aspect=fixed;pointerEvents=1;shape=mxgraph.aws4.internet_gateway;" vertex="1" parent="i8amOK9L9qdCyyJ3UUeL-2">
          <mxGeometry x="486" y="70" width="28" height="28" as="geometry" />
        </mxCell>
        <mxCell id="i8amOK9L9qdCyyJ3UUeL-40" value="" style="outlineConnect=0;dashed=0;verticalLabelPosition=bottom;verticalAlign=top;align=center;html=1;shape=mxgraph.aws3.vpc_nat_gateway;fillColor=#F58536;gradientColor=none;" vertex="1" parent="i8amOK9L9qdCyyJ3UUeL-2">
          <mxGeometry x="700" y="140" width="60" height="60" as="geometry" />
        </mxCell>
        <mxCell id="i8amOK9L9qdCyyJ3UUeL-44" value="" style="image;aspect=fixed;html=1;points=[];align=center;fontSize=12;image=img/lib/azure2/databases/Azure_Database_PostgreSQL_Server.svg;" vertex="1" parent="i8amOK9L9qdCyyJ3UUeL-2">
          <mxGeometry x="480" y="649" width="52.5" height="70" as="geometry" />
        </mxCell>
        <mxCell id="i8amOK9L9qdCyyJ3UUeL-46" value="ElasticSearch" style="text;html=1;align=center;verticalAlign=middle;resizable=0;points=[];autosize=1;strokeColor=none;fillColor=none;" vertex="1" parent="i8amOK9L9qdCyyJ3UUeL-2">
          <mxGeometry x="610" y="718" width="100" height="30" as="geometry" />
        </mxCell>
        <mxCell id="i8amOK9L9qdCyyJ3UUeL-47" value="" style="sketch=0;points=[[0,0,0],[0.25,0,0],[0.5,0,0],[0.75,0,0],[1,0,0],[0,1,0],[0.25,1,0],[0.5,1,0],[0.75,1,0],[1,1,0],[0,0.25,0],[0,0.5,0],[0,0.75,0],[1,0.25,0],[1,0.5,0],[1,0.75,0]];outlineConnect=0;fontColor=#232F3E;fillColor=#ED7100;strokeColor=#ffffff;dashed=0;verticalLabelPosition=bottom;verticalAlign=top;align=center;html=1;fontSize=12;fontStyle=0;aspect=fixed;shape=mxgraph.aws4.resourceIcon;resIcon=mxgraph.aws4.ecr;" vertex="1" parent="i8amOK9L9qdCyyJ3UUeL-2">
          <mxGeometry x="60.5" y="310" width="52.5" height="52.5" as="geometry" />
        </mxCell>
        <mxCell id="i8amOK9L9qdCyyJ3UUeL-62" style="edgeStyle=orthogonalEdgeStyle;rounded=0;orthogonalLoop=1;jettySize=auto;html=1;entryX=0;entryY=0.5;entryDx=0;entryDy=0;startArrow=classic;startFill=1;" edge="1" parent="i8amOK9L9qdCyyJ3UUeL-2" source="i8amOK9L9qdCyyJ3UUeL-16" target="i8amOK9L9qdCyyJ3UUeL-49">
          <mxGeometry relative="1" as="geometry" />
        </mxCell>
        <mxCell id="i8amOK9L9qdCyyJ3UUeL-16" value="" style="outlineConnect=0;dashed=0;verticalLabelPosition=bottom;verticalAlign=top;align=center;html=1;shape=mxgraph.aws3.ec2;fillColor=#F58534;gradientColor=none;" vertex="1" parent="i8amOK9L9qdCyyJ3UUeL-2">
          <mxGeometry x="305" y="399.25" width="60" height="70" as="geometry" />
        </mxCell>
        <mxCell id="i8amOK9L9qdCyyJ3UUeL-29" value="Model training" style="text;html=1;align=center;verticalAlign=middle;resizable=0;points=[];autosize=1;strokeColor=none;fillColor=none;" vertex="1" parent="i8amOK9L9qdCyyJ3UUeL-2">
          <mxGeometry x="280" y="464.75" width="100" height="30" as="geometry" />
        </mxCell>
        <mxCell id="i8amOK9L9qdCyyJ3UUeL-48" value="" style="sketch=0;points=[[0,0,0],[0.25,0,0],[0.5,0,0],[0.75,0,0],[1,0,0],[0,1,0],[0.25,1,0],[0.5,1,0],[0.75,1,0],[1,1,0],[0,0.25,0],[0,0.5,0],[0,0.75,0],[1,0.25,0],[1,0.5,0],[1,0.75,0]];outlineConnect=0;fontColor=#232F3E;fillColor=#ED7100;strokeColor=#ffffff;dashed=0;verticalLabelPosition=bottom;verticalAlign=top;align=center;html=1;fontSize=12;fontStyle=0;aspect=fixed;shape=mxgraph.aws4.resourceIcon;resIcon=mxgraph.aws4.eks;" vertex="1" parent="i8amOK9L9qdCyyJ3UUeL-2">
          <mxGeometry x="550" y="290" width="30" height="30" as="geometry" />
        </mxCell>
        <mxCell id="i8amOK9L9qdCyyJ3UUeL-60" style="edgeStyle=orthogonalEdgeStyle;rounded=0;orthogonalLoop=1;jettySize=auto;html=1;exitX=0.5;exitY=1;exitDx=0;exitDy=0;" edge="1" parent="i8amOK9L9qdCyyJ3UUeL-2" source="i8amOK9L9qdCyyJ3UUeL-49" target="i8amOK9L9qdCyyJ3UUeL-44">
          <mxGeometry relative="1" as="geometry" />
        </mxCell>
        <mxCell id="i8amOK9L9qdCyyJ3UUeL-31" value="" style="dashed=0;html=1;shape=mxgraph.aws3.cloud;fillColor=#F58536;gradientColor=none;dashed=0;" vertex="1" parent="1">
          <mxGeometry x="-132" y="44" width="52" height="36" as="geometry" />
        </mxCell>
        <mxCell id="i8amOK9L9qdCyyJ3UUeL-64" style="edgeStyle=orthogonalEdgeStyle;rounded=0;orthogonalLoop=1;jettySize=auto;html=1;exitX=0.5;exitY=1;exitDx=0;exitDy=0;exitPerimeter=0;" edge="1" parent="1" source="i8amOK9L9qdCyyJ3UUeL-32" target="i8amOK9L9qdCyyJ3UUeL-37">
          <mxGeometry relative="1" as="geometry" />
        </mxCell>
        <mxCell id="i8amOK9L9qdCyyJ3UUeL-32" value="" style="shape=mxgraph.signs.tech.computer;html=1;pointerEvents=1;fillColor=#000000;strokeColor=none;verticalLabelPosition=bottom;verticalAlign=top;align=center;" vertex="1" parent="1">
          <mxGeometry x="391" y="-30" width="58" height="50" as="geometry" />
        </mxCell>
        <mxCell id="i8amOK9L9qdCyyJ3UUeL-61" style="edgeStyle=orthogonalEdgeStyle;rounded=0;orthogonalLoop=1;jettySize=auto;html=1;exitX=0.5;exitY=1;exitDx=0;exitDy=0;exitPerimeter=0;" edge="1" parent="1" source="i8amOK9L9qdCyyJ3UUeL-37" target="i8amOK9L9qdCyyJ3UUeL-50">
          <mxGeometry relative="1" as="geometry" />
        </mxCell>
        <mxCell id="i8amOK9L9qdCyyJ3UUeL-37" value="" style="outlineConnect=0;dashed=0;verticalLabelPosition=bottom;verticalAlign=top;align=center;html=1;shape=mxgraph.aws3.elastic_load_balancing;fillColor=#F58534;gradientColor=none;" vertex="1" parent="1">
          <mxGeometry x="390" y="220" width="60" height="70" as="geometry" />
        </mxCell>
        <mxCell id="i8amOK9L9qdCyyJ3UUeL-39" value="Client" style="text;html=1;align=center;verticalAlign=middle;resizable=0;points=[];autosize=1;strokeColor=none;fillColor=none;" vertex="1" parent="1">
          <mxGeometry x="395" y="25" width="50" height="30" as="geometry" />
        </mxCell>
      </root>
    </mxGraphModel>
  </diagram>
</mxfile>
